<svg width="326" height="16" viewBox="0 0 326 16" fill="none" xmlns="http://www.w3.org/2000/svg">
<path d="M163.653 0C161.759 0 159.694 0.970588 157.512 2.88235C156.477 3.78824 155.582 4.75882 154.912 5.53529C154.912 5.53529 154.912 5.53529 154.918 5.54118V5.53529C154.918 5.53529 155.977 6.68824 157.147 7.92353C157.777 7.17647 158.682 6.15882 159.724 5.24118C161.665 3.54118 162.93 3.18235 163.653 3.18235C166.377 3.18235 168.588 5.34118 168.588 7.99412C168.588 10.6294 166.371 12.7882 163.653 12.8059C163.53 12.8059 163.371 12.7882 163.171 12.7471C163.965 13.0882 164.818 13.3353 165.63 13.3353C170.618 13.3353 171.594 10.0824 171.659 9.84706C171.806 9.25294 171.882 8.62941 171.882 7.98824C171.882 3.58824 168.188 0 163.653 0Z" fill="url(#paint0_linear_1731_311)"/>
<path d="M146.229 15.9999C148.124 15.9999 150.188 15.0293 152.371 13.1175C153.406 12.2116 154.3 11.241 154.971 10.4646C154.971 10.4646 154.971 10.4646 154.965 10.4587V10.4646C154.965 10.4646 153.906 9.31163 152.735 8.07634C152.106 8.8234 151.2 9.84104 150.159 10.7587C148.218 12.4587 146.953 12.8175 146.229 12.8175C143.506 12.8116 141.294 10.6528 141.294 7.99987C141.294 5.36457 143.512 3.20575 146.229 3.1881C146.353 3.1881 146.512 3.20575 146.712 3.24693C145.918 2.90575 145.065 2.65869 144.253 2.65869C139.265 2.65869 138.294 5.91163 138.224 6.14104C138.076 6.74104 138 7.35869 138 7.99987C138 12.4116 141.694 15.9999 146.229 15.9999Z" fill="url(#paint1_linear_1731_311)"/>
<path d="M165.618 13.2647C163.065 13.2 160.412 11.1882 159.871 10.6882C158.471 9.39412 155.241 5.89412 154.988 5.61765C152.624 2.96471 149.418 0 146.23 0H146.224H146.218C142.347 0.0176471 139.094 2.64118 138.224 6.14118C138.288 5.91176 139.565 2.59412 144.247 2.71176C146.8 2.77647 149.465 4.81765 150.012 5.31765C151.412 6.61176 154.641 10.1118 154.894 10.3882C157.259 13.0353 160.465 16 163.653 16H163.659H163.665C167.535 15.9824 170.794 13.3588 171.659 9.85882C171.588 10.0882 170.306 13.3765 165.618 13.2647Z" fill="#29ABE2"/>
<path d="M179.9 11.8486C180.139 11.8486 180.333 11.6561 180.333 11.4187V5.57187C180.333 5.3344 180.139 5.14189 179.9 5.14189H179.433C179.194 5.14189 179 5.3344 179 5.57187V11.4187C179 11.6561 179.194 11.8486 179.433 11.8486H179.9Z" fill="#C3C3C4"/>
<path d="M190.094 11.8486C190.334 11.8486 190.527 11.6561 190.527 11.4187V5.57187C190.527 5.3344 190.334 5.14189 190.094 5.14189H189.646C189.407 5.14189 189.213 5.3344 189.213 5.57187V9.57838L186.532 5.34294C186.453 5.21782 186.314 5.14189 186.165 5.14189H185.2C184.961 5.14189 184.767 5.3344 184.767 5.57187V11.4187C184.767 11.6561 184.961 11.8486 185.2 11.8486H185.648C185.887 11.8486 186.081 11.6561 186.081 11.4187V7.09054L189.019 11.6505C189.099 11.774 189.236 11.8486 189.383 11.8486H190.094Z" fill="#C3C3C4"/>
<path d="M199.487 6.38108C199.726 6.38108 199.92 6.18857 199.92 5.95111V5.57187C199.92 5.3344 199.726 5.14189 199.487 5.14189H194.764C194.525 5.14189 194.331 5.3344 194.331 5.57187V5.95111C194.331 6.18858 194.525 6.38108 194.764 6.38108H196.464V11.4187C196.464 11.6561 196.658 11.8486 196.897 11.8486H197.354C197.593 11.8486 197.787 11.6561 197.787 11.4187V6.38108H199.487Z" fill="#C3C3C4"/>
<path d="M207.515 11.8486C207.754 11.8486 207.948 11.6561 207.948 11.4187V11.0489C207.948 10.8114 207.754 10.6189 207.515 10.6189H205.034V9.06757H207.239C207.478 9.06757 207.672 8.87506 207.672 8.63759V8.33403C207.672 8.09656 207.478 7.90405 207.239 7.90405H205.034V6.37162H207.515C207.754 6.37162 207.948 6.17911 207.948 5.94165V5.57187C207.948 5.3344 207.754 5.14189 207.515 5.14189H204.153C203.914 5.14189 203.72 5.3344 203.72 5.57187V11.4187C203.72 11.6561 203.914 11.8486 204.153 11.8486H207.515Z" fill="#C3C3C4"/>
<path d="M215.303 11.6138C215.377 11.7579 215.526 11.8486 215.689 11.8486H216.174C216.499 11.8486 216.708 11.5054 216.557 11.2191L215.442 9.10541C216.328 8.85 216.88 8.14054 216.88 7.20405C216.88 6.04054 216.042 5.14189 214.728 5.14189H212.524C212.285 5.14189 212.091 5.3344 212.091 5.57187V11.4187C212.091 11.6561 212.285 11.8486 212.524 11.8486H212.981C213.22 11.8486 213.414 11.6561 213.414 11.4187V9.26622H214.1L215.303 11.6138ZM213.414 8.14054V6.27703H214.481C215.147 6.27703 215.537 6.64595 215.537 7.21351C215.537 7.76216 215.147 8.14054 214.481 8.14054H213.414Z" fill="#C3C3C4"/>
<path d="M226.272 11.8486C226.511 11.8486 226.705 11.6561 226.705 11.4187V5.57187C226.705 5.3344 226.511 5.14189 226.272 5.14189H225.824C225.585 5.14189 225.391 5.3344 225.391 5.57187V9.57838L222.71 5.34294C222.63 5.21782 222.492 5.14189 222.343 5.14189H221.377C221.138 5.14189 220.945 5.3344 220.945 5.57187V11.4187C220.945 11.6561 221.138 11.8486 221.377 11.8486H221.826C222.065 11.8486 222.259 11.6561 222.259 11.4187V7.09054L225.197 11.6505C225.276 11.774 225.414 11.8486 225.561 11.8486H226.272Z" fill="#C3C3C4"/>
<path d="M234.941 11.8486C235.18 11.8486 235.374 11.6561 235.374 11.4187V11.0489C235.374 10.8114 235.18 10.6189 234.941 10.6189H232.461V9.06757H234.665C234.904 9.06757 235.098 8.87506 235.098 8.63759V8.33403C235.098 8.09656 234.904 7.90405 234.665 7.90405H232.461V6.37162H234.941C235.18 6.37162 235.374 6.17911 235.374 5.94165V5.57187C235.374 5.3344 235.18 5.14189 234.941 5.14189H231.579C231.34 5.14189 231.147 5.3344 231.147 5.57187V11.4187C231.147 11.6561 231.34 11.8486 231.579 11.8486H234.941Z" fill="#C3C3C4"/>
<path d="M244.035 6.38108C244.274 6.38108 244.468 6.18857 244.468 5.95111V5.57187C244.468 5.3344 244.274 5.14189 244.035 5.14189H239.312C239.073 5.14189 238.879 5.3344 238.879 5.57187V5.95111C238.879 6.18858 239.073 6.38108 239.312 6.38108H241.012V11.4187C241.012 11.6561 241.206 11.8486 241.445 11.8486H241.903C242.142 11.8486 242.335 11.6561 242.335 11.4187V6.38108H244.035Z" fill="#C3C3C4"/>
<path d="M256.18 11.9905C257.842 11.9905 258.793 11.0305 259.176 10.0989C259.263 9.88682 259.13 9.65881 258.91 9.59254L258.495 9.46799C258.264 9.39862 258.024 9.53356 257.909 9.74395C257.632 10.2475 257.09 10.7135 256.18 10.7135C255.095 10.7135 254.086 9.92838 254.086 8.5C254.086 6.97703 255.152 6.25811 256.161 6.25811C257.075 6.25811 257.594 6.68957 257.856 7.18463C257.971 7.404 258.219 7.54791 258.457 7.47341L258.87 7.34395C259.087 7.27587 259.217 7.05051 259.133 6.84013C258.751 5.88446 257.809 5 256.161 5C254.352 5 252.724 6.36216 252.724 8.5C252.724 10.6378 254.295 11.9905 256.18 11.9905Z" fill="#C3C3C4"/>
<path d="M264.139 8.49054C264.139 6.97703 265.205 6.25811 266.243 6.25811C267.291 6.25811 268.357 6.97703 268.357 8.49054C268.357 10.0041 267.291 10.723 266.243 10.723C265.205 10.723 264.139 10.0041 264.139 8.49054ZM262.777 8.5C262.777 10.6568 264.415 11.9905 266.243 11.9905C268.081 11.9905 269.719 10.6568 269.719 8.5C269.719 6.33378 268.081 5 266.243 5C264.415 5 262.777 6.33378 262.777 8.5Z" fill="#C3C3C4"/>
<path d="M280.85 11.8486C281.089 11.8486 281.283 11.6561 281.283 11.4187V5.57187C281.283 5.3344 281.089 5.14189 280.85 5.14189H279.784C279.608 5.14189 279.449 5.24792 279.383 5.41003L277.512 9.98514L275.595 5.40671C275.528 5.24637 275.37 5.14189 275.196 5.14189H274.184C273.945 5.14189 273.751 5.3344 273.751 5.57187V11.4187C273.751 11.6561 273.945 11.8486 274.184 11.8486H274.575C274.814 11.8486 275.008 11.6561 275.008 11.4187V7.18514L276.84 11.5831C276.907 11.7438 277.065 11.8486 277.24 11.8486H277.755C277.931 11.8486 278.089 11.7433 278.156 11.5819L279.988 7.1473V11.4187C279.988 11.6561 280.182 11.8486 280.421 11.8486H280.85Z" fill="#C3C3C4"/>
<path d="M287.044 8.1973V6.27703H288.081C288.738 6.27703 289.138 6.64595 289.138 7.24189C289.138 7.81892 288.738 8.1973 288.081 8.1973H287.044ZM288.243 9.32297C289.576 9.32297 290.462 8.4527 290.462 7.23243C290.462 6.02162 289.576 5.14189 288.243 5.14189H286.153C285.914 5.14189 285.72 5.3344 285.72 5.57187V11.4187C285.72 11.6561 285.914 11.8486 286.153 11.8486H286.601C286.84 11.8486 287.034 11.6561 287.034 11.4187V9.32297H288.243Z" fill="#C3C3C4"/>
<path d="M296.874 12C298.321 12 299.474 11.1203 299.474 9.47432V5.57187C299.474 5.3344 299.28 5.14189 299.041 5.14189H298.592C298.353 5.14189 298.16 5.3344 298.16 5.57187V9.37973C298.16 10.2595 297.674 10.723 296.874 10.723C296.093 10.723 295.598 10.2595 295.598 9.37973V5.57187C295.598 5.3344 295.405 5.14189 295.166 5.14189H294.717C294.478 5.14189 294.284 5.3344 294.284 5.57187V9.47432C294.284 11.1203 295.436 12 296.874 12Z" fill="#C3C3C4"/>
<path d="M308.374 6.38108C308.613 6.38108 308.807 6.18857 308.807 5.95111V5.57187C308.807 5.3344 308.613 5.14189 308.374 5.14189H303.65C303.411 5.14189 303.218 5.3344 303.218 5.57187V5.95111C303.218 6.18858 303.411 6.38108 303.65 6.38108H305.35V11.4187C305.35 11.6561 305.544 11.8486 305.783 11.8486H306.241C306.48 11.8486 306.674 11.6561 306.674 11.4187V6.38108H308.374Z" fill="#C3C3C4"/>
<path d="M316.402 11.8486C316.641 11.8486 316.835 11.6561 316.835 11.4187V11.0489C316.835 10.8114 316.641 10.6189 316.402 10.6189H313.921V9.06757H316.126C316.365 9.06757 316.558 8.87506 316.558 8.63759V8.33403C316.558 8.09656 316.365 7.90405 316.126 7.90405H313.921V6.37162H316.402C316.641 6.37162 316.835 6.17911 316.835 5.94165V5.57187C316.835 5.3344 316.641 5.14189 316.402 5.14189H313.04C312.801 5.14189 312.607 5.3344 312.607 5.57187V11.4187C312.607 11.6561 312.801 11.8486 313.04 11.8486H316.402Z" fill="#C3C3C4"/>
<path d="M324.189 11.6138C324.263 11.7579 324.412 11.8486 324.575 11.8486H325.061C325.386 11.8486 325.595 11.5054 325.444 11.2191L324.329 9.10541C325.214 8.85 325.767 8.14054 325.767 7.20405C325.767 6.04054 324.929 5.14189 323.615 5.14189H320.977V11.4187C320.977 11.6561 321.171 11.8486 321.41 11.8486H321.868C322.107 11.8486 322.301 11.6561 322.301 11.4187V9.26622H322.986L324.189 11.6138ZM322.301 8.14054V6.27703H323.367C324.034 6.27703 324.424 6.64595 324.424 7.21351C324.424 7.76216 324.034 8.14054 323.367 8.14054H322.301Z" fill="#C3C3C4"/>
<path d="M1.29733 8.15467V6.26H2.31467C2.95867 6.26 3.35067 6.624 3.35067 7.212C3.35067 7.78133 2.95867 8.15467 2.31467 8.15467H1.29733ZM2.47333 9.26533C3.78 9.26533 4.648 8.40667 4.648 7.20267C4.648 6.008 3.78 5.14 2.47333 5.14H0V11.2907C0 11.5484 0.208934 11.7573 0.466667 11.7573H0.821334C1.07907 11.7573 1.288 11.5484 1.288 11.2907V9.26533H2.47333Z" fill="#C3C3C4"/>
<path d="M8.74038 8.444C8.74038 6.95067 9.78571 6.24133 10.803 6.24133C11.8297 6.24133 12.875 6.95067 12.875 8.444C12.875 9.93733 11.8297 10.6467 10.803 10.6467C9.78571 10.6467 8.74038 9.93733 8.74038 8.444ZM7.40571 8.45333C7.40571 10.5813 9.01104 11.8973 10.803 11.8973C12.6044 11.8973 14.2097 10.5813 14.2097 8.45333C14.2097 6.316 12.6044 5 10.803 5C9.01104 5 7.40571 6.316 7.40571 8.45333Z" fill="#C3C3C4"/>
<path d="M23.6168 9.71333L22.2464 5.46345C22.1842 5.27067 22.0048 5.14 21.8022 5.14H21.1475C20.9448 5.14 20.7653 5.27081 20.7033 5.46374L19.3421 9.69467L18.2211 5.48654C18.1666 5.2822 17.9816 5.14 17.7701 5.14H17.3801C17.0715 5.14 16.8479 5.43423 16.9305 5.7316L18.5098 11.4156C18.5659 11.6176 18.7498 11.7573 18.9594 11.7573H19.6084C19.8112 11.7573 19.9908 11.6263 20.0527 11.4332L21.4608 7.044L22.8688 11.4332C22.9307 11.6263 23.1103 11.7573 23.3131 11.7573H23.9429C24.1528 11.7573 24.3368 11.6173 24.3927 11.415L25.964 5.73101C26.0462 5.43378 25.8226 5.14 25.5143 5.14H25.1719C24.9595 5.14 24.774 5.28331 24.7203 5.48872L23.6168 9.71333Z" fill="#C3C3C4"/>
<path d="M32.9038 11.7573C33.1615 11.7573 33.3705 11.5484 33.3705 11.2907V11.0107C33.3705 10.7529 33.1615 10.544 32.9038 10.544H30.5145V9.01333H32.6331C32.8909 9.01333 33.0998 8.8044 33.0998 8.54667V8.332C33.0998 8.07427 32.8909 7.86533 32.6331 7.86533H30.5145V6.35333H32.9038C33.1615 6.35333 33.3705 6.1444 33.3705 5.88667V5.60667C33.3705 5.34893 33.1615 5.14 32.9038 5.14H29.6931C29.4354 5.14 29.2265 5.34893 29.2265 5.60667V11.2907C29.2265 11.5484 29.4354 11.7573 29.6931 11.7573H32.9038Z" fill="#C3C3C4"/>
<path d="M39.9149 11.5024C39.9946 11.6588 40.1553 11.7573 40.3308 11.7573H40.7106C41.0614 11.7573 41.2868 11.3848 41.1239 11.074L40.0634 9.05067C40.9314 8.79867 41.4727 8.09867 41.4727 7.17467C41.4727 6.02667 40.6514 5.14 39.3634 5.14H36.7781V11.2907C36.7781 11.5484 36.987 11.7573 37.2447 11.7573H37.6087C37.8665 11.7573 38.0754 11.5484 38.0754 11.2907V9.20933H38.7474L39.9149 11.5024ZM38.0754 8.09867V6.26H39.1207C39.7741 6.26 40.1567 6.624 40.1567 7.184C40.1567 7.72533 39.7741 8.09867 39.1207 8.09867H38.0754Z" fill="#C3C3C4"/>
<path d="M48.481 11.7573C48.7387 11.7573 48.9476 11.5484 48.9476 11.2907V11.0107C48.9476 10.7529 48.7387 10.544 48.481 10.544H46.0916V9.01333H48.2103C48.468 9.01333 48.677 8.8044 48.677 8.54667V8.332C48.677 8.07427 48.468 7.86533 48.2103 7.86533H46.0916V6.35333H48.481C48.7387 6.35333 48.9476 6.1444 48.9476 5.88667V5.60667C48.9476 5.34893 48.7387 5.14 48.481 5.14H45.2703C45.0126 5.14 44.8036 5.34893 44.8036 5.60667V11.2907C44.8036 11.5484 45.0126 11.7573 45.2703 11.7573H48.481Z" fill="#C3C3C4"/>
<path d="M53.6433 10.5627V6.33467H54.6793C55.7619 6.33467 56.6579 7.016 56.6579 8.45333C56.6579 9.89067 55.7526 10.5627 54.6699 10.5627H53.6433ZM54.7166 11.7573C56.6019 11.7573 57.9926 10.544 57.9926 8.45333C57.9926 6.36267 56.6113 5.14 54.7259 5.14H52.8219C52.5642 5.14 52.3553 5.34893 52.3553 5.60667V11.2907C52.3553 11.5484 52.5642 11.7573 52.8219 11.7573H54.7166Z" fill="#C3C3C4"/>
<path d="M65.1478 5.14C64.8901 5.14 64.6812 5.34893 64.6812 5.60667V11.2907C64.6812 11.5484 64.8901 11.7573 65.1478 11.7573H67.2385C68.4798 11.7573 69.2825 10.9827 69.2825 9.90933C69.2825 9.088 68.7598 8.5 68.1158 8.34133C68.6665 8.15467 69.0771 7.604 69.0771 6.92267C69.0771 5.896 68.3492 5.14 67.0611 5.14H65.1478ZM65.9505 7.87467V6.22267H66.8558C67.4812 6.22267 67.8078 6.54 67.8078 7.044C67.8078 7.548 67.4531 7.87467 66.8652 7.87467H65.9505ZM65.9505 10.684V8.93867H67.0145C67.6585 8.93867 67.9945 9.30267 67.9945 9.82533C67.9945 10.3573 67.6211 10.684 66.9958 10.684H65.9505Z" fill="#C3C3C4"/>
<path d="M73.9486 8.976V11.2907C73.9486 11.5484 74.1575 11.7573 74.4152 11.7573H74.7699C75.0276 11.7573 75.2366 11.5484 75.2366 11.2907V8.976L77.1385 5.84919C77.3277 5.5382 77.1038 5.14 76.7398 5.14H76.3954C76.2272 5.14 76.072 5.23048 75.9892 5.37685L74.6392 7.76267L73.2893 5.37685C73.2064 5.23048 73.0513 5.14 72.8831 5.14H72.4681C72.1053 5.14 71.8812 5.53601 72.0681 5.84705L73.9486 8.976Z" fill="#C3C3C4"/>
<path d="M86.625 11.8973C88.2317 11.8973 89.1609 10.9754 89.5456 10.068C89.6425 9.83916 89.4996 9.59156 89.2617 9.51964L88.935 9.42086C88.686 9.34557 88.4277 9.49265 88.298 9.7182C88.0208 10.2004 87.4943 10.6373 86.625 10.6373C85.561 10.6373 84.5716 9.86267 84.5716 8.45333C84.5716 6.95067 85.617 6.24133 86.6063 6.24133C87.4773 6.24133 87.9829 6.64426 88.2455 7.11588C88.3763 7.35076 88.6428 7.50773 88.8991 7.42687L89.2233 7.32464C89.4576 7.25075 89.5981 7.00583 89.5043 6.77877C89.1208 5.85007 88.2 5 86.6063 5C84.833 5 83.237 6.344 83.237 8.45333C83.237 10.5627 84.777 11.8973 86.625 11.8973Z" fill="#C3C3C4"/>
<path d="M95.9672 11.5024C96.0468 11.6588 96.2075 11.7573 96.3831 11.7573H96.7628C97.1137 11.7573 97.339 11.3847 97.1762 11.074L96.1156 9.05067C96.9836 8.79867 97.525 8.09867 97.525 7.17467C97.525 6.02667 96.7037 5.14 95.4156 5.14H93.297C93.0392 5.14 92.8303 5.34893 92.8303 5.60667V11.2907C92.8303 11.5484 93.0392 11.7573 93.297 11.7573H93.661C93.9187 11.7573 94.1276 11.5484 94.1276 11.2907V9.20933H94.7997L95.9672 11.5024ZM94.1276 8.09867V6.26H95.173C95.8263 6.26 96.209 6.624 96.209 7.184C96.209 7.72533 95.8263 8.09867 95.173 8.09867H94.1276Z" fill="#C3C3C4"/>
<path d="M102.234 8.976V11.2907C102.234 11.5484 102.443 11.7573 102.701 11.7573H103.056C103.314 11.7573 103.522 11.5484 103.522 11.2907V8.976L105.424 5.84919C105.614 5.5382 105.39 5.14 105.026 5.14H104.681C104.513 5.14 104.358 5.23048 104.275 5.37685L102.925 7.76267L101.575 5.37685C101.492 5.23048 101.337 5.14 101.169 5.14H100.754C100.391 5.14 100.167 5.53601 100.354 5.84705L102.234 8.976Z" fill="#C3C3C4"/>
<path d="M110.179 8.15467V6.26H111.196C111.84 6.26 112.232 6.624 112.232 7.212C112.232 7.78133 111.84 8.15467 111.196 8.15467H110.179ZM111.355 9.26533C112.661 9.26533 113.529 8.40667 113.529 7.20267C113.529 6.008 112.661 5.14 111.355 5.14H109.348C109.09 5.14 108.881 5.34893 108.881 5.60667V11.2907C108.881 11.5484 109.09 11.7573 109.348 11.7573H109.703C109.961 11.7573 110.169 11.5484 110.169 11.2907V9.26533H111.355Z" fill="#C3C3C4"/>
<path d="M121.066 6.36267C121.324 6.36267 121.533 6.15373 121.533 5.896V5.60667C121.533 5.34893 121.324 5.14 121.066 5.14H116.521C116.263 5.14 116.054 5.34893 116.054 5.60667V5.896C116.054 6.15373 116.263 6.36267 116.521 6.36267H118.145V11.2907C118.145 11.5484 118.353 11.7573 118.611 11.7573H118.975C119.233 11.7573 119.442 11.5484 119.442 11.2907V6.36267H121.066Z" fill="#C3C3C4"/>
<path d="M125.347 8.444C125.347 6.95067 126.392 6.24133 127.409 6.24133C128.436 6.24133 129.481 6.95067 129.481 8.444C129.481 9.93733 128.436 10.6467 127.409 10.6467C126.392 10.6467 125.347 9.93733 125.347 8.444ZM124.012 8.45333C124.012 10.5813 125.617 11.8973 127.409 11.8973C129.211 11.8973 130.816 10.5813 130.816 8.45333C130.816 6.316 129.211 5 127.409 5C125.617 5 124.012 6.316 124.012 8.45333Z" fill="#C3C3C4"/>
<defs>
<linearGradient id="paint0_linear_1731_311" x1="159.369" y1="1.05498" x2="170.558" y2="12.6414" gradientUnits="userSpaceOnUse">
<stop offset="0.21" stop-color="#F15A24"/>
<stop offset="0.6841" stop-color="#FBB03B"/>
</linearGradient>
<linearGradient id="paint1_linear_1731_311" x1="150.513" y1="14.9449" x2="139.324" y2="3.3585" gradientUnits="userSpaceOnUse">
<stop offset="0.21" stop-color="#ED1E79"/>
<stop offset="0.8929" stop-color="#522785"/>
</linearGradient>
</defs>
</svg>
